<svg width="24" height="24" viewBox="0 0 24 24" fill="none" xmlns="http://www.w3.org/2000/svg">
<g clip-path="url(#clip0_66_566)">
<path d="M15.0499 4C16.0267 4.19057 16.9243 4.66826 17.628 5.37194C18.3317 6.07561 18.8094 6.97326 18.9999 7.95L15.0499 4ZM15.0499 0C17.0792 0.225436 18.9715 1.13417 20.4162 2.57701C21.8608 4.01984 22.7719 5.91101 22.9999 7.94L15.0499 0ZM21.9999 15.92V18.92C22.0011 19.1985 21.944 19.4742 21.8324 19.7293C21.7209 19.9845 21.5572 20.2136 21.352 20.4019C21.1468 20.5901 20.9045 20.7335 20.6407 20.8227C20.3769 20.9119 20.0973 20.9451 19.8199 20.92C16.7428 20.5856 13.7869 19.5341 11.1899 17.85C8.77376 16.3147 6.72527 14.2662 5.18993 11.85C3.49991 9.2412 2.44818 6.27099 2.11993 3.18C2.09494 2.90347 2.12781 2.62476 2.21643 2.36162C2.30506 2.09849 2.4475 1.85669 2.6347 1.65162C2.82189 1.44655 3.04974 1.28271 3.30372 1.17052C3.55771 1.05833 3.83227 1.00026 4.10993 1H7.10993C7.59524 0.995224 8.06572 1.16708 8.43369 1.48353C8.80166 1.79999 9.04201 2.23945 9.10993 2.72C9.23656 3.68007 9.47138 4.62273 9.80993 5.53C9.94448 5.88792 9.9736 6.27691 9.89384 6.65088C9.81408 7.02485 9.6288 7.36811 9.35993 7.64L8.08993 8.91C9.51349 11.4135 11.5864 13.4864 14.0899 14.91L15.3599 13.64C15.6318 13.3711 15.9751 13.1858 16.3491 13.1061C16.723 13.0263 17.112 13.0555 17.4699 13.19C18.3772 13.5286 19.3199 13.7634 20.2799 13.89C20.7657 13.9585 21.2093 14.2032 21.5265 14.5775C21.8436 14.9518 22.0121 15.4296 21.9999 15.92Z" stroke="black" stroke-width="2" stroke-linecap="round" stroke-linejoin="round"/>
</g>
<defs>
<clipPath id="clip0_66_566">
<rect width="24" height="24" fill="white"/>
</clipPath>
</defs>
</svg>
