<svg width="184" height="74" viewBox="0 0 184 74" fill="none" xmlns="http://www.w3.org/2000/svg">
<path d="M8.49432 63.5333H0.9375L10.7528 34.4424H20.1136L29.929 63.5333H22.3722L15.5398 41.772H15.3125L8.49432 63.5333ZM7.4858 52.0845H23.2812V57.4254H7.4858V52.0845ZM33.0611 63.5333V41.7151H39.8082V45.6924H40.0355C40.4332 44.253 41.0819 43.1829 41.9815 42.4822C42.8812 41.772 43.9276 41.4168 45.1207 41.4168C45.4427 41.4168 45.7741 41.4405 46.1151 41.4879C46.456 41.5257 46.7732 41.5873 47.0668 41.6725V47.7095C46.7353 47.5958 46.2997 47.5059 45.7599 47.4396C45.2296 47.3733 44.7562 47.3401 44.3395 47.3401C43.5156 47.3401 42.7723 47.5248 42.1094 47.8941C41.456 48.254 40.9399 48.7606 40.5611 49.414C40.1918 50.0579 40.0071 50.8155 40.0071 51.6867V63.5333H33.0611ZM58.9489 63.9453C56.6477 63.9453 54.6733 63.4718 53.0256 62.5248C51.3873 61.5778 50.1278 60.2615 49.2472 58.5759C48.3665 56.8809 47.9261 54.9206 47.9261 52.6953C47.9261 50.4604 48.3665 48.5002 49.2472 46.8146C50.1373 45.1195 51.4015 43.7985 53.0398 42.8515C54.6875 41.9045 56.6525 41.4311 58.9347 41.4311C60.9517 41.4311 62.7083 41.7956 64.2045 42.5248C65.7102 43.254 66.8845 44.2862 67.7273 45.6214C68.5795 46.9472 69.0294 48.5049 69.0767 50.2947H62.5852C62.4527 49.1773 62.0739 48.3013 61.4489 47.6668C60.8333 47.0324 60.0284 46.7151 59.0341 46.7151C58.2292 46.7151 57.5237 46.9424 56.9176 47.397C56.3116 47.842 55.8381 48.5049 55.4972 49.3856C55.1657 50.2568 55 51.3364 55 52.6242C55 53.9121 55.1657 55.0011 55.4972 55.8913C55.8381 56.772 56.3116 57.4396 56.9176 57.8941C57.5237 58.3392 58.2292 58.5617 59.0341 58.5617C59.678 58.5617 60.2462 58.4244 60.7386 58.1498C61.2405 57.8752 61.6525 57.4727 61.9744 56.9424C62.2964 56.4026 62.5 55.7492 62.5852 54.9822H69.0767C69.0104 56.7814 68.5606 58.3534 67.7273 59.6981C66.9034 61.0428 65.7434 62.0892 64.2472 62.8373C62.7604 63.5759 60.9943 63.9453 58.9489 63.9453ZM82.8161 63.9453C80.5244 63.9453 78.5547 63.4765 76.907 62.539C75.2687 61.592 74.0045 60.2757 73.1143 58.5901C72.2337 56.8951 71.7933 54.9301 71.7933 52.6953C71.7933 50.4509 72.2337 48.486 73.1143 46.8004C74.0045 45.1053 75.2687 43.789 76.907 42.8515C78.5547 41.9045 80.5244 41.4311 82.8161 41.4311C85.1077 41.4311 87.0727 41.9045 88.7109 42.8515C90.3587 43.789 91.6229 45.1053 92.5036 46.8004C93.3937 48.486 93.8388 50.4509 93.8388 52.6953C93.8388 54.9301 93.3937 56.8951 92.5036 58.5901C91.6229 60.2757 90.3587 61.592 88.7109 62.539C87.0727 63.4765 85.1077 63.9453 82.8161 63.9453ZM82.8587 58.7038C83.692 58.7038 84.3975 58.4481 84.9751 57.9367C85.5528 57.4254 85.9931 56.7151 86.2962 55.8061C86.6087 54.897 86.7649 53.8458 86.7649 52.6526C86.7649 51.4405 86.6087 50.3799 86.2962 49.4708C85.9931 48.5617 85.5528 47.8515 84.9751 47.3401C84.3975 46.8288 83.692 46.5731 82.8587 46.5731C81.9969 46.5731 81.2678 46.8288 80.6712 47.3401C80.084 47.8515 79.6342 48.5617 79.3217 49.4708C79.0187 50.3799 78.8672 51.4405 78.8672 52.6526C78.8672 53.8458 79.0187 54.897 79.3217 55.8061C79.6342 56.7151 80.084 57.4254 80.6712 57.9367C81.2678 58.4481 81.9969 58.7038 82.8587 58.7038ZM116.445 48.3771L110.067 48.5475C110.001 48.093 109.821 47.6905 109.528 47.3401C109.234 46.9803 108.851 46.7009 108.377 46.5021C107.913 46.2937 107.373 46.1896 106.758 46.1896C105.953 46.1896 105.266 46.3506 104.698 46.6725C104.139 46.9945 103.865 47.4301 103.874 47.9793C103.865 48.4055 104.035 48.7748 104.386 49.0873C104.746 49.3998 105.385 49.6507 106.303 49.8401L110.508 50.6356C112.686 51.0523 114.305 51.7436 115.366 52.7095C116.436 53.6754 116.976 54.9538 116.985 56.5447C116.976 58.0409 116.531 59.343 115.65 60.4509C114.779 61.5589 113.585 62.4206 112.07 63.0362C110.555 63.6422 108.822 63.9453 106.871 63.9453C103.756 63.9453 101.299 63.3061 99.4993 62.0276C97.7095 60.7398 96.6868 59.0163 96.4311 56.8572L103.292 56.6867C103.443 57.4822 103.836 58.0882 104.471 58.5049C105.105 58.9216 105.915 59.1299 106.9 59.1299C107.79 59.1299 108.514 58.9642 109.073 58.6328C109.632 58.3013 109.916 57.861 109.925 57.3117C109.916 56.8193 109.698 56.4263 109.272 56.1328C108.846 55.8297 108.178 55.593 107.269 55.4225L103.462 54.6981C101.275 54.3004 99.6461 53.5665 98.576 52.4964C97.5059 51.4168 96.9756 50.0437 96.9851 48.3771C96.9756 46.9187 97.3639 45.6735 98.1499 44.6413C98.9358 43.5996 100.053 42.8042 101.502 42.2549C102.951 41.7057 104.66 41.4311 106.63 41.4311C109.585 41.4311 111.914 42.0513 113.619 43.2918C115.323 44.5229 116.265 46.218 116.445 48.3771ZM134.482 54.1157V41.7151H141.413V63.5333H134.794V59.4708H134.567C134.084 60.8061 133.26 61.8667 132.095 62.6526C130.94 63.4292 129.543 63.8174 127.905 63.8174C126.418 63.8174 125.111 63.4765 123.984 62.7947C122.857 62.1129 121.982 61.1612 121.357 59.9396C120.732 58.7085 120.414 57.2691 120.405 55.6214V41.7151H127.351V54.2578C127.36 55.4415 127.673 56.3742 128.288 57.0561C128.904 57.7379 129.742 58.0788 130.803 58.0788C131.494 58.0788 132.114 57.9273 132.663 57.6242C133.222 57.3117 133.662 56.8619 133.984 56.2748C134.316 55.6782 134.482 54.9585 134.482 54.1157ZM152.781 34.4424V63.5333H145.835V34.4424H152.781ZM167.401 63.9453C165.118 63.9453 163.149 63.4954 161.491 62.5958C159.844 61.6867 158.575 60.3941 157.685 58.718C156.804 57.0324 156.364 55.0295 156.364 52.7095C156.364 50.4557 156.809 48.486 157.699 46.8004C158.589 45.1053 159.844 43.789 161.463 42.8515C163.082 41.9045 164.991 41.4311 167.188 41.4311C168.741 41.4311 170.161 41.6725 171.449 42.1555C172.737 42.6384 173.849 43.3534 174.787 44.3004C175.724 45.2473 176.454 46.4168 176.974 47.8089C177.495 49.1915 177.756 50.7776 177.756 52.5674V54.3004H158.793V50.2663H171.293C171.283 49.5276 171.108 48.8695 170.767 48.2918C170.426 47.7142 169.957 47.2644 169.361 46.9424C168.774 46.611 168.097 46.4453 167.33 46.4453C166.553 46.4453 165.857 46.6204 165.241 46.9708C164.626 47.3117 164.138 47.7805 163.778 48.3771C163.419 48.9642 163.229 49.6318 163.21 50.3799V54.485C163.21 55.3752 163.385 56.1564 163.736 56.8288C164.086 57.4917 164.583 58.0078 165.227 58.3771C165.871 58.7464 166.638 58.9311 167.528 58.9311C168.144 58.9311 168.703 58.8458 169.205 58.6754C169.706 58.5049 170.137 58.254 170.497 57.9225C170.857 57.5911 171.127 57.1839 171.307 56.7009L177.685 56.8856C177.42 58.3155 176.837 59.5608 175.938 60.6214C175.047 61.6725 173.878 62.4917 172.429 63.0788C170.98 63.6564 169.304 63.9453 167.401 63.9453Z" fill="black"/>
<path fill-rule="evenodd" clip-rule="evenodd" d="M111.5 29.5124C111.565 28.7427 111.599 27.9638 111.599 27.1771C111.599 12.1676 99.431 0 84.4215 0C69.412 0 57.2444 12.1676 57.2444 27.1771C57.2444 27.964 57.2778 28.7431 57.3434 29.513C58.5277 14.9287 70.1987 3.47867 84.4216 3.47867C98.6442 3.47867 110.315 14.9284 111.5 29.5124Z" fill="#C71BE3"/>
<path fill-rule="evenodd" clip-rule="evenodd" d="M104.194 29.8242C104.242 29.2596 104.267 28.6882 104.267 28.1111C104.267 17.1022 95.3421 8.17776 84.3332 8.17776C73.3244 8.17776 64.3999 17.1022 64.3999 28.1111C64.3999 28.6881 64.4244 29.2595 64.4725 29.8241C65.3413 19.1272 73.9014 10.7293 84.3332 10.7293C94.765 10.7293 103.325 19.1273 104.194 29.8242Z" fill="#D29ADB"/>
</svg>
